<svg width="2000" height="675" fill="none" xmlns="http://www.w3.org/2000/svg"><g clip-path="url(#clip0)"><path fill="url(#paint0_linear)" d="M0 0h2000v675H0z"/><path d="M614.712-290.97s78.007 161.516 248.309 232.956C927.317-31.035 996.317-6.719 1075.3 1.58c87.37 9.185 166.4 10.206 241.3-3.017 107.29-18.903 190.09-71.751 249.11-145.809 41.66-52.493 90.78-94.292 141.5-125.886 174.3-108.624 359.29-93.138 386.98-90.831" stroke="#fff" stroke-opacity=".08" stroke-miterlimit="10"/><path d="M549.617-271.357S624.474-89.34 805.426-25.577C876.599-.507 946.753 27.404 1027.07 40.85c87.1 14.554 167.9 21.876 251.24 10.871 110.97-14.687 198.83-72.682 265.12-147.361 46.51-52.715 99.97-94.292 154.29-123.534 177.04-95.357 341.71-48.322 397.09-43.707" stroke="#fff" stroke-opacity=".08" stroke-miterlimit="10"/><path d="M484.478-251.7S556.406-49.583 747.785 6.904C825.926 29.978 897.1 61.527 978.79 80.164c86.79 19.834 169.37 33.368 261.18 24.715 114.61-10.827 207.57-73.659 281.14-148.87 51.34-52.937 108.98-94.426 167.02-121.183 179.27-82.666 324.19-3.505 407.21 3.373" stroke="#fff" stroke-opacity=".08" stroke-miterlimit="10"/><path d="M419.338-232.088S488.471-10.18 690.189 39.34c85.152 20.9 157.302 56.132 240.323 80.093 86.528 24.982 170.838 44.683 271.158 38.604 118.17-7.188 216.32-74.59 297.17-150.423 56.22-53.159 117.9-94.692 179.8-118.786 180.99-70.553 306.61 41.311 417.28 50.496" stroke="#fff" stroke-opacity=".08" stroke-miterlimit="10"/><path d="M354.244-212.475s66.381 241.388 278.35 284.252c92.162 18.636 165.333 57.551 249.685 86.926 86.261 30.04 172.251 55.821 281.101 52.449 121.71-3.772 225.06-75.567 313.18-151.977 61.06-53.38 126.69-95.135 192.58-116.434 182.42-59.06 289.04 86.127 427.4 97.62" stroke="#fff" stroke-opacity=".08" stroke-miterlimit="10"/><path d="M289.104-192.818s63.675 260.646 285.894 297.076c99.217 16.285 173.364 58.882 259.003 93.759 86.039 35.01 173.759 71.307 291.039 66.293 125.13-5.324 233.8-76.498 329.2-153.529 65.9-53.647 135.43-95.757 205.36-114.083 183.61-48.1 271.52 130.944 437.52 144.744" stroke="#fff" stroke-opacity=".08" stroke-miterlimit="10"/><path d="M223.966-173.205s60.968 279.681 293.392 309.899c106.273 13.8 181.44 60.169 268.366 100.593 85.817 39.936 175.095 77.652 300.976 80.182 128.82 2.618 242.59-77.475 345.22-155.083 70.78-53.869 144.13-96.644 218.1-111.73 184.76-37.673 253.94 175.76 447.63 191.823" stroke="#fff" stroke-opacity=".08" stroke-miterlimit="10"/><path d="M158.826-153.592s58.262 298.628 300.936 322.723c113.328 11.27 189.561 61.367 277.685 107.426 85.684 44.772 176.559 88.346 310.923 94.026 132.4 5.635 251.32-78.407 361.23-156.636 75.62-54.09 152.82-97.709 230.88-109.334 185.96-27.733 236.37 220.532 457.75 238.947" stroke="#fff" stroke-opacity=".08" stroke-miterlimit="10"/><path d="M93.732-133.979s55.466 317.398 308.434 335.546c120.339 8.653 197.77 62.521 287.048 114.26 85.595 49.609 178.067 98.907 320.906 107.914 136.04 8.564 260.07-79.382 377.25-158.188 80.45-54.313 161.57-99.04 243.65-106.983 187.26-18.149 218.81 265.349 467.87 286.071" stroke="#fff" stroke-opacity=".08" stroke-miterlimit="10"/><path d="M28.592-114.322s52.715 336.079 315.979 348.37c127.349 5.946 205.978 63.631 296.365 121.093C726.442 409.498 820.513 464.52 971.779 476.9c139.681 11.448 268.811-80.315 393.271-159.742 85.33-54.534 170.35-100.548 256.43-104.631 188.72-8.963 201.28 310.166 477.99 333.151" stroke="#fff" stroke-opacity=".08" stroke-miterlimit="10"/><path d="M-36.547-94.71S13.328 259.963 286.93 266.486c260.024 6.212 316.112 230.693 646.511 263.574 241.479 24.05 456.999-263.574 678.459-263.574 190.36 0 183.7 354.981 488.1 380.274" stroke="#fff" stroke-opacity=".08" stroke-miterlimit="10"/><path d="M-42.315 8.413s63.275 333.86 330.355 337.01c257.761 2.352 323.432 181.618 646.555 229.807 242.625 36.208 454.065-236.995 677.305-235.575 190.89 1.154 186.01 332.529 485.75 347.438" stroke="#fff" stroke-opacity=".08" stroke-miterlimit="10"/><path d="M-48.084 111.579s76.676 313.715 337.277 312.783c255.543-.931 330.843 133.03 646.6 196.039 243.877 48.677 451.177-210.46 676.107-207.575 191.42 2.351 188.32 310.032 483.44 314.602" stroke="#fff" stroke-opacity=".08" stroke-miterlimit="10"/><path d="M-53.852 214.746s90.12 293.171 344.155 288.6c253.279-4.57 338.297 84.974 646.643 162.271 245.204 61.457 448.294-183.88 674.954-179.576 191.91 3.505 190.58 287.58 481.09 281.767" stroke="#fff" stroke-opacity=".08" stroke-miterlimit="10"/><path d="M-59.62 317.868S43.944 590.405 291.455 582.241c251.061-8.253 345.752 37.406 646.688 128.503 246.486 74.635 445.416-157.345 673.796-151.577 192.45 4.659 192.89 265.127 478.74 248.931" stroke="#fff" stroke-opacity=".08" stroke-miterlimit="10"/><path d="M-65.39 421.035S51.578 672.85 292.567 661.224c248.842-12.025 353.118-9.673 646.732 94.736 247.732 88.124 442.532-130.766 672.602-123.578 192.98 5.857 195.2 242.63 476.39 216.095" stroke="#fff" stroke-opacity=".08" stroke-miterlimit="10"/><path d="M-71.158 524.157S59.254 755.206 293.72 740.119c246.624-15.885 360.351-56.353 646.733 61.013C1189.34 903.1 1380.05 696.944 1611.9 705.508c193.51 7.011 197.5 220.178 474.08 183.26" stroke="#fff" stroke-opacity=".08" stroke-miterlimit="10"/><path d="M-76.926 627.324S66.93 837.517 294.829 819.103c244.36-19.791 367.406-102.679 646.776 27.245 249.865 116.167 436.715-77.653 670.255-67.625 194.04 8.209 199.81 197.681 471.72 150.424" stroke="#fff" stroke-opacity=".08" stroke-miterlimit="10"/></g><defs><linearGradient id="paint0_linear" x1="0" y1="0" x2="2000" y2="675" gradientUnits="userSpaceOnUse"><stop stop-color="#0048BB"/><stop offset="1" stop-color="#00A0BB"/></linearGradient><clipPath id="clip0"><path fill="#fff" d="M0 0h2000v675H0z"/></clipPath></defs></svg>